<?xml version="1.0" standalone="no"?>
<!DOCTYPE svg PUBLIC "-//W3C//DTD SVG 20010904//EN"
 "http://www.w3.org/TR/2001/REC-SVG-20010904/DTD/svg10.dtd">
<svg version="1.0" xmlns="http://www.w3.org/2000/svg"
 width="442.000000pt" height="442.000000pt" viewBox="0 0 442.000000 442.000000"
 preserveAspectRatio="xMidYMid meet">
<metadata>
Created by potrace 1.11, written by Peter Selinger 2001-2013
</metadata>
<g transform="translate(0.000000,442.000000) scale(0.100000,-0.100000)"
fill="#000000" stroke="none">
<path d="M594 4409 c-141 -24 -266 -91 -379 -204 -91 -91 -143 -174 -183 -290
l-27 -80 -3 -1136 -3 -1137 83 -30 c121 -44 214 -56 381 -49 113 4 160 10 230
31 158 47 283 124 344 213 32 47 38 64 41 122 7 117 -33 172 -210 287 -265
173 -387 350 -388 564 0 173 54 293 200 441 233 236 596 394 1050 455 167 23
473 23 635 0 220 -31 463 -100 610 -173 157 -79 1165 -670 1201 -705 126 -121
40 -280 -193 -354 -74 -24 -264 -29 -346 -10 -86 20 -79 16 -541 283 -214 124
-417 236 -451 248 -91 35 -214 55 -330 55 -368 0 -675 -177 -675 -390 0 -39
39 -127 69 -154 18 -17 22 -16 69 18 149 107 410 164 632 137 171 -21 233 -49
673 -303 221 -128 427 -243 458 -255 189 -76 478 -35 607 85 l32 30 15 -28
c48 -93 -17 -201 -159 -266 -152 -69 -394 -71 -527 -3 -24 12 -219 123 -434
247 -401 232 -481 270 -615 291 -93 15 -275 13 -363 -3 -88 -17 -209 -57 -214
-71 -1 -6 17 -22 41 -38 70 -44 170 -142 220 -214 150 -220 136 -462 -41 -683
-167 -210 -499 -391 -868 -474 -367 -83 -801 -80 -1144 8 l-94 25 5 -157 c5
-133 10 -169 32 -237 37 -114 89 -198 181 -290 91 -91 174 -143 290 -183 l80
-27 1625 0 1625 0 77 26 c120 41 204 94 294 183 89 90 142 174 183 294 l26 77
0 1625 0 1625 -26 77 c-41 120 -94 204 -183 294 -90 89 -174 142 -294 183
l-77 26 -1595 1 c-877 1 -1618 -2 -1646 -7z"/>
</g>
</svg>
